<?xml version="1.0" encoding="UTF-8"?>
<svg width="36px" height="51px" viewBox="0 0 36 51" version="1.1" xmlns="http://www.w3.org/2000/svg" xmlns:xlink="http://www.w3.org/1999/xlink">
    <title>Untitled 2</title>
    <g id="Page-1" stroke="none" stroke-width="1" fill="none" fill-rule="evenodd">
        <g id="car-svgrepo-com-2" transform="translate(4.000000, 2.000000)" fill-rule="nonzero">
            <ellipse id="Oval" fill="#4AB8A1" cx="14.5" cy="15" rx="14.5" ry="15"></ellipse>
            <path d="M28.4621406,19.0455469 C28.4233984,18.9832031 28.3760469,18.9246094 28.3203125,18.8770313 L28.3203125,18.8252344 C28.3203125,18.661875 28.2260625,18.4877344 28.09375,18.3813281 L28.09375,18.3447656 L28.09375,18.225 C28.09375,18.06375 27.9990469,17.9430469 27.8671875,17.8748438 L27.8671875,17.8647656 L27.8671875,17.8591406 L27.8671875,17.7445312 L27.8671875,17.6245312 C27.8671875,17.4653906 27.7718047,17.3071875 27.640625,17.2089844 L27.640625,17.1445312 L27.640625,17.0245312 C27.640625,16.8679687 27.5447891,16.7603906 27.4140625,16.6996875 L27.4140625,16.6642969 L27.4140625,16.6584375 L27.4140625,16.5440625 L27.4140625,16.4240625 C27.4140625,16.269375 27.3177734,16.1264062 27.1875,16.0357031 L27.1875,15.9438281 L27.1875,15.8238281 C27.1875,15.67125 27.0907578,15.5758594 26.9609375,15.5226562 L26.9609375,15.4635937 L26.9609375,15.4577344 L26.9609375,15.3433594 L26.9609375,15.2233594 C26.9609375,15.0728906 26.8635156,14.9435156 26.734375,14.8607812 L26.734375,14.8575 L26.734375,14.743125 L26.734375,14.623125 C26.734375,14.4745313 26.6369531,14.3125781 26.5078125,14.2005469 L26.5078125,14.1426562 L26.5078125,14.0226563 C26.5078125,13.8759375 26.4099375,13.75875 26.28125,13.68375 L26.28125,13.6626562 L26.28125,13.5426563 C26.28125,13.3860937 26.1854141,13.2663281 26.0546875,13.1960156 L26.0546875,13.1824219 L26.0546875,13.1767969 L26.0546875,13.0624219 L26.0546875,12.9424219 C26.0546875,12.7879688 25.9581719,12.6328125 25.828125,12.5325 L25.828125,12.4621875 L25.828125,12.3421875 C25.828125,12.1898437 25.7313828,12.0829687 25.6015625,12.0199219 L25.6015625,11.9819531 L25.6015625,11.9763281 L25.6015625,11.8619531 L25.6015625,11.7419531 C25.6015625,11.5914844 25.5041406,11.450625 25.375,11.3582812 L25.375,11.2617188 L25.375,11.1417188 C25.375,10.993125 25.2775781,10.8975 25.1484375,10.8421875 L25.1484375,10.78125 C25.1484375,10.5234375 24.9445313,10.3125 24.6953125,10.3125 L24.015625,10.3125 L23.7890625,10.3125 C23.5398438,10.3125 23.3359375,10.5234375 23.3359375,10.78125 L23.3359375,10.8215625 L23.1925234,10.9699219 L22.2294063,8.76164063 L21.5667109,7.20046875 C21.2112344,6.37335938 20.4338984,5.859375 19.5382969,5.859375 L9.46125,5.859375 C8.56610156,5.859375 7.78853906,6.373125 7.43238281,7.20140625 L5.7565,11.1515625 L5.64185938,11.0332031 C5.61172656,10.955625 5.55055469,10.8977344 5.4719375,10.8574219 L5.4375,10.8215625 L5.4375,10.78125 C5.4375,10.5234375 5.23359375,10.3125 4.984375,10.3125 L4.7578125,10.3125 L4.078125,10.3125 C3.82890625,10.3125 3.625,10.5234375 3.625,10.78125 L3.625,10.90125 L3.625,11.015625 L3.625,11.02125 L3.625,11.135625 L3.625,11.255625 C3.625,11.4023438 3.722875,11.5303125 3.8515625,11.6149219 L3.8515625,11.6158594 L3.8515625,11.6214844 L3.8515625,11.7358594 L3.8515625,11.8558594 C3.8515625,12.0009375 3.9494375,12.1598438 4.078125,12.2728125 L4.078125,12.3360938 L4.078125,12.4364063 C3.65377344,12.7017188 3.3984375,13.1899219 3.3984375,13.7376563 L3.3984375,13.8576563 L3.3984375,13.9776563 L3.3984375,16.7041406 L3.3984375,16.824375 L3.3984375,16.944375 C3.3984375,17.7004688 3.44941406,18.4089844 3.65807813,18.9461719 C3.66238281,18.9571875 3.66600781,18.9689063 3.67076563,18.9799219 C3.68821094,19.0230469 3.70746875,19.0640625 3.72717969,19.1048438 C3.74054688,19.1327344 3.75232813,19.1615625 3.76705469,19.1880469 C3.83026563,19.4671875 3.92157031,19.7179688 4.04663281,19.9303125 C4.07019531,20.0069531 4.09647656,20.0805469 4.12525,20.1510938 C4.12615625,20.1529687 4.12683594,20.1548438 4.12751563,20.15625 C4.14903906,20.2075781 4.17192188,20.2565625 4.19639062,20.3041406 C4.20477344,20.3205469 4.21134375,20.3383594 4.21995312,20.3547656 C4.28339063,20.6332031 4.3735625,20.8844531 4.49885156,21.0960938 C4.54439063,21.2442188 4.59967188,21.3815625 4.66696094,21.50625 C4.67625,21.5235938 4.68508594,21.5414063 4.69482813,21.5582813 C4.70275781,21.5728125 4.71046094,21.5875781 4.71907031,21.6016406 C4.74082031,21.6726563 4.76483594,21.7408594 4.79111719,21.8064844 C4.79315625,21.8111719 4.79474219,21.8153906 4.79610156,21.8198438 C4.81626562,21.8688281 4.83869531,21.9157031 4.86157813,21.9614062 C4.87177344,21.9820312 4.8810625,22.0038281 4.8919375,22.02375 C4.95378906,22.3021875 5.04328125,22.5510938 5.16902344,22.7610938 C5.21252344,22.9057031 5.26667188,23.0395313 5.33146875,23.1611719 C5.336,23.1698438 5.33939844,23.1794531 5.34415625,23.1876562 C5.38017969,23.3491406 5.42549219,23.50125 5.48145313,23.6416406 C5.48417188,23.6477344 5.48621094,23.6540625 5.48847656,23.6603906 C5.50796094,23.7077344 5.52971094,23.7532031 5.55123438,23.7975 C5.56188281,23.8190625 5.57094531,23.8422656 5.58227344,23.8633594 C5.6459375,24.1417969 5.73724219,24.3932813 5.86207813,24.6063281 C5.905125,24.7469531 5.95836719,24.8772656 6.02067188,24.9972656 C6.02520313,25.0054687 6.02860156,25.0146094 6.03290625,25.0228125 C6.09725,25.3035937 6.18764844,25.558125 6.31407031,25.7725781 C6.3600625,25.9214063 6.41625,26.0596875 6.48399219,26.1850781 C6.54992188,26.473125 6.6428125,26.7344531 6.77421875,26.9524219 C6.81975781,27.099375 6.87594531,27.2357813 6.94232813,27.3604687 C6.98786719,27.5601563 7.04813281,27.7450781 7.12380469,27.9133594 C9.2854375,29.2375781 11.8059453,30 14.5,30 C21.1521016,30 26.7547656,25.3638281 28.4621406,19.0455469 Z" id="Path" fill="#43A691"></path>
            <path d="M5.6640625,12.1875 C5.5480625,12.1875 5.43228906,12.1417969 5.34370313,12.0501563 L4.66401563,11.3470313 C4.48707031,11.1639844 4.48707031,10.8672656 4.66401563,10.6842188 C4.84096094,10.5011719 5.12778906,10.5011719 5.30473437,10.6842188 L5.98442187,11.3873437 C6.16136719,11.5703906 6.16136719,11.8671094 5.98442187,12.0501563 C5.89583594,12.1417969 5.7800625,12.1875 5.6640625,12.1875 Z" id="Path" fill="#992B1F"></path>
            <path d="M5.98442188,11.3873437 L5.30473438,10.6842187 C5.18692188,10.5623438 5.02130469,10.5234375 4.87109375,10.56375 C4.94676563,10.5839062 5.0188125,10.6228125 5.07817188,10.6842187 L5.75785938,11.3873437 C5.93480469,11.5703906 5.93480469,11.8671094 5.75785938,12.0501563 C5.6985,12.1115625 5.62645313,12.1504687 5.55078125,12.170625 C5.5879375,12.1804688 5.62577344,12.1875 5.6640625,12.1875 C5.7800625,12.1875 5.89583594,12.1417969 5.98442188,12.0501563 C6.16136719,11.8671094 6.16136719,11.5703906 5.98442188,11.3873437 Z" id="Path" fill="#80241A"></path>
            <path d="M5.4375,11.015625 C5.4375,11.2734375 5.23359375,11.484375 4.984375,11.484375 L4.078125,11.484375 C3.82890625,11.484375 3.625,11.2734375 3.625,11.015625 L3.625,10.78125 C3.625,10.5234375 3.82890625,10.3125 4.078125,10.3125 L4.984375,10.3125 C5.23359375,10.3125 5.4375,10.5234375 5.4375,10.78125 L5.4375,11.015625 Z" id="Path" fill="#992B1F"></path>
            <path d="M4.984375,10.3125 L4.7578125,10.3125 C5.00703125,10.3125 5.2109375,10.5234375 5.2109375,10.78125 L5.2109375,11.015625 C5.2109375,11.2734375 5.00703125,11.484375 4.7578125,11.484375 L4.984375,11.484375 C5.23359375,11.484375 5.4375,11.2734375 5.4375,11.015625 L5.4375,10.78125 C5.4375,10.5234375 5.23359375,10.3125 4.984375,10.3125 Z" id="Path" fill="#80241A"></path>
            <path d="M23.109375,12.1875 C23.225375,12.1875 23.3411484,12.1417969 23.4297344,12.0501563 L24.1094219,11.3470313 C24.2863672,11.1639844 24.2863672,10.8672656 24.1094219,10.6842188 C23.9324766,10.5011719 23.6456484,10.5011719 23.4687031,10.6842188 L22.7890156,11.3873437 C22.6120703,11.5703906 22.6120703,11.8671094 22.7890156,12.0501563 C22.8776016,12.1417969 22.993375,12.1875 23.109375,12.1875 Z" id="Path" fill="#992B1F"></path>
            <path d="M22.7890156,11.3873437 L23.4687031,10.6842187 C23.5865156,10.5623438 23.7521328,10.5234375 23.9023437,10.56375 C23.8266719,10.5839062 23.754625,10.6228125 23.6952656,10.6842187 L23.0155781,11.3873437 C22.8386328,11.5703906 22.8386328,11.8671094 23.0155781,12.0501563 C23.0749375,12.1115625 23.1469844,12.1504687 23.2226562,12.170625 C23.1855,12.1804688 23.1476641,12.1875 23.109375,12.1875 C22.993375,12.1875 22.8776016,12.1417969 22.7890156,12.0501563 C22.6120703,11.8671094 22.6120703,11.5703906 22.7890156,11.3873437 Z" id="Path" fill="#80241A"></path>
            <path d="M23.3359375,11.015625 C23.3359375,11.2734375 23.5398438,11.484375 23.7890625,11.484375 L24.6953125,11.484375 C24.9445312,11.484375 25.1484375,11.2734375 25.1484375,11.015625 L25.1484375,10.78125 C25.1484375,10.5234375 24.9445312,10.3125 24.6953125,10.3125 L23.7890625,10.3125 C23.5398438,10.3125 23.3359375,10.5234375 23.3359375,10.78125 L23.3359375,11.015625 Z" id="Path" fill="#992B1F"></path>
            <path d="M23.7890625,10.3125 L24.015625,10.3125 C23.7664063,10.3125 23.5625,10.5234375 23.5625,10.78125 L23.5625,11.015625 C23.5625,11.2734375 23.7664063,11.484375 24.015625,11.484375 L23.7890625,11.484375 C23.5398438,11.484375 23.3359375,11.2734375 23.3359375,11.015625 L23.3359375,10.78125 C23.3359375,10.5234375 23.5398438,10.3125 23.7890625,10.3125 Z" id="Path" fill="#80241A"></path>
            <path d="M21.3596328,7.295625 C21.0302109,6.52898438 20.3190312,6.09375 19.5385234,6.09375 L14.5,6.09375 L9.46147656,6.09375 C8.68119531,6.09375 7.96978906,6.52875 7.64036719,7.295625 L5.6640625,11.953125 L14.5,11.953125 L23.3359375,11.953125 L21.3596328,7.295625 Z" id="Path" fill="#C2E2F2"></path>
            <g id="Group" transform="translate(7.929688, 9.375000)" fill="#1A1A1A">
                <path d="M4.984375,2.34375 C4.984375,2.859375 4.5765625,3.28125 4.078125,3.28125 L0.90625,3.28125 C0.4078125,3.28125 0,2.859375 0,2.34375 L0,0.9375 C0,0.421875 0.4078125,0 0.90625,0 L4.078125,0 C4.5765625,0 4.984375,0.421875 4.984375,0.9375 L4.984375,2.34375 Z" id="Path"></path>
                <path d="M13.140625,2.34375 C13.140625,2.859375 12.7328125,3.28125 12.234375,3.28125 L9.0625,3.28125 C8.5640625,3.28125 8.15625,2.859375 8.15625,2.34375 L8.15625,0.9375 C8.15625,0.421875 8.5640625,0 9.0625,0 L12.234375,0 C12.7328125,0 13.140625,0.421875 13.140625,0.9375 L13.140625,2.34375 Z" id="Path"></path>
            </g>
            <path d="M18.578125,13.828125 C17.7038203,13.828125 16.9921875,13.0921875 16.9921875,12.1875 C16.9921875,11.2828125 17.7038203,10.546875 18.578125,10.546875 C19.4524297,10.546875 20.1640625,11.2828125 20.1640625,12.1875 C20.1640625,13.0921875 19.4524297,13.828125 18.578125,13.828125 Z M18.578125,11.015625 C17.9534922,11.015625 17.4453125,11.5413281 17.4453125,12.1875 C17.4453125,12.8336719 17.9534922,13.359375 18.578125,13.359375 C19.2027578,13.359375 19.7109375,12.8336719 19.7109375,12.1875 C19.7109375,11.5413281 19.2027578,11.015625 18.578125,11.015625 Z" id="Shape" fill="#263740"></path>
            <path d="M23.3359375,12.1875 L5.6640625,12.1875 C5.58748437,12.1875 5.51634375,12.1476563 5.47442969,12.0813281 C5.43251562,12.015 5.42571875,11.9313281 5.45653125,11.8589063 L7.43283594,7.20140625 C7.78876562,6.373125 8.56610156,5.859375 9.46147656,5.859375 L19.53875,5.859375 C20.4338984,5.859375 21.2114609,6.373125 21.5671641,7.20046875 L23.5436953,11.8589063 C23.5745078,11.9313281 23.5672578,12.015 23.5257969,12.0813281 C23.4841094,12.1476563 23.4125156,12.1875 23.3359375,12.1875 Z M6.01092969,11.71875 L22.9890703,11.71875 L21.1527812,7.38984375 C20.8713906,6.73546875 20.2526484,6.328125 19.53875,6.328125 L9.46170312,6.328125 C8.74757812,6.328125 8.12883594,6.73523438 7.84744531,7.39078125 L6.01092969,11.71875 Z" id="Shape" fill="#992B1F"></path>
            <path d="M24.7272578,12.3358594 L23.3359375,11.71875 L14.5,11.71875 L5.6640625,11.71875 L4.27274219,12.3358594 C3.73261719,12.5615625 3.3984375,13.1109375 3.3984375,13.7378906 L3.3984375,16.7046094 C3.3984375,18.2927344 3.51919531,19.6875 4.984375,19.6875 L14.5,19.6875 L24.015625,19.6875 C25.4808047,19.6875 25.6015625,18.2927344 25.6015625,16.7046094 L25.6015625,13.7378906 C25.6015625,13.1107031 25.2669297,12.5615625 24.7272578,12.3358594 Z" id="Path" fill="#CC584C"></path>
            <path d="M24.7272578,12.3358594 L23.3359375,11.71875 L22.65625,11.71875 L24.0475703,12.3358594 C24.5879219,12.5615625 24.921875,13.1109375 24.921875,13.7378906 L24.921875,16.7046094 C24.921875,18.2927344 24.8011172,19.6875 23.3359375,19.6875 L24.015625,19.6875 C25.4808047,19.6875 25.6015625,18.2927344 25.6015625,16.7046094 L25.6015625,13.7378906 C25.6015625,13.1107031 25.2669297,12.5615625 24.7272578,12.3358594 Z" id="Path" fill="#BF5347"></path>
            <path d="M24.46875,16.640625 C24.46875,17.4140625 23.8570312,18.046875 23.109375,18.046875 L5.890625,18.046875 C5.14296875,18.046875 4.53125,17.4140625 4.53125,16.640625 L4.53125,15.46875 C4.53125,14.6953125 5.14296875,14.0625 5.890625,14.0625 L23.109375,14.0625 C23.8570312,14.0625 24.46875,14.6953125 24.46875,15.46875 L24.46875,16.640625 Z" id="Path" fill="#B34D43"></path>
            <g id="Group" transform="translate(10.421875, 14.765625)" fill="#802920">
                <path d="M7.9296875,2.109375 L0.2265625,2.109375 C0.101273438,2.109375 0,2.214375 0,2.34375 C0,2.473125 0.101273438,2.578125 0.2265625,2.578125 L7.9296875,2.578125 C8.05497656,2.578125 8.15625,2.473125 8.15625,2.34375 C8.15625,2.214375 8.05497656,2.109375 7.9296875,2.109375 Z" id="Path"></path>
                <path d="M7.9296875,1.40625 L0.2265625,1.40625 C0.101273438,1.40625 0,1.51125 0,1.640625 C0,1.77 0.101273438,1.875 0.2265625,1.875 L7.9296875,1.875 C8.05497656,1.875 8.15625,1.77 8.15625,1.640625 C8.15625,1.51125 8.05497656,1.40625 7.9296875,1.40625 Z" id="Path"></path>
                <path d="M7.9296875,0.703125 L0.2265625,0.703125 C0.101273438,0.703125 0,0.808125 0,0.9375 C0,1.066875 0.101273438,1.171875 0.2265625,1.171875 L7.9296875,1.171875 C8.05497656,1.171875 8.15625,1.066875 8.15625,0.9375 C8.15625,0.808125 8.05497656,0.703125 7.9296875,0.703125 Z" id="Path"></path>
                <path d="M0.2265625,0.46875 L7.9296875,0.46875 C8.05497656,0.46875 8.15625,0.36375 8.15625,0.234375 C8.15625,0.105 8.05497656,0 7.9296875,0 L0.2265625,0 C0.101273438,0 0,0.105 0,0.234375 C0,0.36375 0.101273438,0.46875 0.2265625,0.46875 Z" id="Path"></path>
            </g>
            <g id="Group" transform="translate(8.609318, 7.265566)" fill="#E6F7FF">
                <path d="M0.226619141,1.64068359 C0.168619141,1.64068359 0.110619141,1.61771484 0.0664394531,1.57201172 C-0.0221464844,1.48037109 -0.0221464844,1.33224609 0.0664394531,1.24060547 L1.19925195,0.0687304687 C1.28783789,-0.0229101563 1.43102539,-0.0229101563 1.51961133,0.0687304687 C1.60819727,0.160371094 1.60819727,0.308496094 1.51961133,0.400136719 L0.386798828,1.57201172 C0.342619141,1.61771484 0.284619141,1.64068359 0.226619141,1.64068359 Z" id="Path"></path>
                <path d="M0.226619141,3.51568359 C0.168619141,3.51568359 0.110619141,3.49271484 0.0664394531,3.44701172 C-0.0221464844,3.35537109 -0.0221464844,3.20724609 0.0664394531,3.11560547 L3.01175195,0.0687304687 C3.10033789,-0.0229101563 3.24352539,-0.0229101563 3.33211133,0.0687304687 C3.42069727,0.160371094 3.42069727,0.308496094 3.33211133,0.400136719 L0.386798828,3.44701172 C0.342619141,3.49271484 0.284619141,3.51568359 0.226619141,3.51568359 Z" id="Path"></path>
            </g>
            <g id="Group" transform="translate(6.117188, 19.687500)" fill="#242424">
                <path d="M0,0 L0,1.40625 C0,2.4890625 0.808828125,2.34375 1.8125,2.34375 C2.81617187,2.34375 3.625,2.4890625 3.625,1.40625 L3.625,0 L0,0 Z" id="Path"></path>
                <path d="M13.140625,0 L13.140625,1.40625 C13.140625,2.4890625 13.9494531,2.34375 14.953125,2.34375 C15.9567969,2.34375 16.765625,2.4890625 16.765625,1.40625 L16.765625,0 L13.140625,0 Z" id="Path"></path>
            </g>
            <g id="Group" transform="translate(7.082570, 19.687500)" fill="#1A1A1A">
                <path d="M13.3080547,2.37118297 C13.2514141,2.37118297 13.1956797,2.37214297 13.140625,2.37358297 C13.2974062,2.38894297 13.4677813,2.38414297 13.6478984,2.37886297 C13.5377891,2.37502297 13.4245078,2.37118297 13.3080547,2.37118297 Z" id="Path"></path>
                <path d="M15.1205547,0 L15.1205547,1.40625 C15.1205547,2.15835937 14.7297344,2.31773437 14.1551719,2.34492187 C15.0797734,2.35664063 15.8002422,2.42789062 15.8002422,1.40625 L15.8002422,0 L15.1205547,0 Z" id="Path"></path>
                <path d="M0.167429688,2.37118297 C0.110789063,2.37118297 0.0550546875,2.37214297 8.04911693e-16,2.37358297 C0.15678125,2.38894297 0.32715625,2.38414297 0.507273438,2.37886297 C0.397164063,2.37502297 0.283882813,2.37118297 0.167429688,2.37118297 Z" id="Path"></path>
                <path d="M1.97992969,0 L1.97992969,1.40625 C1.97992969,2.15835937 1.58910938,2.31773437 1.01454688,2.34492187 C1.93914844,2.35664063 2.65961719,2.42789062 2.65961719,1.40625 L2.65961719,0 L1.97992969,0 Z" id="Path"></path>
            </g>
            <path d="M7.703125,15.9375 C7.703125,16.4557031 7.29780469,16.875 6.79664844,16.875 C6.29594531,16.875 5.890625,16.4557031 5.890625,15.9375 C5.890625,15.4192969 6.29594531,15 6.79664844,15 C7.29780469,15 7.703125,15.4192969 7.703125,15.9375 Z" id="Path" fill="#F5F5F5"></path>
            <path d="M6.79664844,17.109375 C6.17201563,17.109375 5.6640625,16.5836719 5.6640625,15.9375 C5.6640625,15.2913281 6.17201563,14.765625 6.79664844,14.765625 C7.42150781,14.765625 7.9296875,15.2913281 7.9296875,15.9375 C7.9296875,16.5836719 7.42150781,17.109375 6.79664844,17.109375 Z M6.79664844,15.234375 C6.42214063,15.234375 6.1171875,15.5498438 6.1171875,15.9375 C6.1171875,16.3251562 6.42214063,16.640625 6.79664844,16.640625 C7.17115625,16.640625 7.4765625,16.3251562 7.4765625,15.9375 C7.4765625,15.5498438 7.17115625,15.234375 6.79664844,15.234375 Z" id="Shape" fill="#263740"></path>
            <path d="M23.109375,15.9375 C23.109375,16.4557031 22.7040547,16.875 22.2028984,16.875 C21.7021953,16.875 21.296875,16.4557031 21.296875,15.9375 C21.296875,15.4192969 21.7021953,15 22.2028984,15 C22.7040547,15 23.109375,15.4192969 23.109375,15.9375 Z" id="Path" fill="#F5F5F5"></path>
            <g id="Group" transform="translate(13.300257, 6.328125)" fill="#263740">
                <path d="M8.90264103,10.78125 C8.27800822,10.78125 7.7700551,10.2555469 7.7700551,9.609375 C7.7700551,8.96320312 8.27800822,8.4375 8.90264103,8.4375 C9.52750041,8.4375 10.0356801,8.96320312 10.0356801,9.609375 C10.0356801,10.2555469 9.52750041,10.78125 8.90264103,10.78125 Z M8.90264103,8.90625 C8.52813322,8.90625 8.2231801,9.22171875 8.2231801,9.609375 C8.2231801,9.99703125 8.52813322,10.3125 8.90264103,10.3125 C9.27714885,10.3125 9.5825551,9.99703125 9.5825551,9.609375 C9.5825551,9.22171875 9.27714885,8.90625 8.90264103,8.90625 Z" id="Shape"></path>
                <rect id="Rectangle" x="0.973180096" y="0" width="1" height="1"></rect>
                <path d="M2.35634416,0.986953125 C2.46803947,1.21757813 2.35521135,1.40625 2.1059926,1.40625 L0.293492596,1.40625 C0.0442738457,1.40625 -0.0685542793,1.21757813 0.0431410332,0.986953125 L0.0909457207,0.888046875 C0.202414471,0.657421875 0.497398846,0.46875 0.746617596,0.46875 L1.6528676,0.46875 C1.90208635,0.46875 2.19707072,0.657421875 2.30876603,0.888046875 L2.35634416,0.986953125 Z" id="Path"></path>
            </g>
        </g>
        <g id="sosButton" transform="translate(0.768000, 0.000000)" fill="#E6AB6C" fill-rule="nonzero">
            <path d="M19.7768231,48.5860443 C19.4133394,49.4351668 18.4923619,49.995963 17.4631951,50 C16.4328872,50.0028877 15.5063176,49.4479122 15.1362147,48.6037072 C10.1108955,37.1307687 0,22.3898979 0,15.3890782 C0,6.90467753 7.84839493,0 17.5010842,0 C27.1492085,0 35,6.90467753 35,15.3890782 C35.0010271,22.4104711 24.7407438,36.9895661 19.7768231,48.5860443 Z M17.5010842,2.92681815 C9.93240621,2.92681815 3.77646445,8.34018729 3.77646445,14.9929682 C3.77646445,21.649663 9.93240621,27.0659425 17.5010842,27.0659425 C25.0674797,27.0659425 31.2234214,21.6515698 31.2234214,14.9929682 C31.2222802,8.34018729 25.0674797,2.92681815 17.5010842,2.92681815 Z" id="Shape"></path>
        </g>
    </g>
</svg>