<?xml version="1.0" encoding="UTF-8"?>
<svg width="512px" height="512px" viewBox="0 0 512 512" version="1.1" xmlns="http://www.w3.org/2000/svg" xmlns:xlink="http://www.w3.org/1999/xlink">
    <title>Untitled</title>
    <g id="Page-1" stroke="none" stroke-width="1" fill="none" fill-rule="evenodd">
        <g id="car-svgrepo-com-3" fill-rule="nonzero">
            <circle id="Oval" fill="#4C4C4C" cx="256" cy="256" r="256"></circle>
            <path d="M502.504,325.044 C501.82,323.98 500.984,322.98 500,322.168 L500,321.284 C500,318.496 498.336,315.524 496,313.708 L496,313.084 L496,311.04 C496,308.288 494.328,306.228 492,305.064 L492,304.892 L492,304.796 L492,302.84 L492,300.792 C492,298.076 490.316,295.376 488,293.7 L488,292.6 L488,290.552 C488,287.88 486.308,286.044 484,285.008 L484,284.404 L484,284.304 L484,282.352 L484,280.304 C484,277.664 482.3,275.224 480,273.676 L480,272.108 L480,270.06 C480,267.456 478.292,265.828 476,264.92 L476,263.912 L476,263.812 L476,261.86 L476,259.812 C476,257.244 474.28,255.036 472,253.624 L472,253.568 L472,251.616 L472,249.568 C472,247.032 470.28,244.268 468,242.356 L468,241.368 L468,239.32 C468,236.816 466.272,234.816 464,233.536 L464,233.176 L464,231.128 C464,228.456 462.308,226.412 460,225.212 L460,224.98 L460,224.884 L460,222.932 L460,220.884 C460,218.248 458.296,215.6 456,213.888 L456,212.688 L456,210.64 C456,208.04 454.292,206.216 452,205.14 L452,204.492 L452,204.396 L452,202.444 L452,200.396 C452,197.828 450.28,195.424 448,193.848 L448,192.2 L448,190.152 C448,187.616 446.28,185.984 444,185.04 L444,184 C444,179.6 440.4,176 436,176 L424,176 L420,176 C415.6,176 412,179.6 412,184 L412,184.688 L409.468,187.22 L392.464,149.532 L380.764,122.888 C374.488,108.772 360.764,100 344.952,100 L167.04,100 C151.236,100 137.508,108.768 131.22,122.904 L101.632,190.32 L99.608,188.3 C99.076,186.976 97.996,185.988 96.608,185.3 L96,184.688 L96,184 C96,179.6 92.4,176 88,176 L84,176 L72,176 C67.6,176 64,179.6 64,184 L64,186.048 L64,188 L64,188.096 L64,190.048 L64,192.096 C64,194.6 65.728,196.784 68,198.228 L68,198.244 L68,198.34 L68,200.292 L68,202.34 C68,204.816 69.728,207.528 72,209.456 L72,210.536 L72,212.248 C64.508,216.776 60,225.108 60,234.456 L60,236.504 L60,238.552 L60,285.084 L60,287.136 L60,289.184 C60,302.088 60.9,314.18 64.584,323.348 C64.66,323.536 64.724,323.736 64.808,323.924 C65.116,324.66 65.456,325.36 65.804,326.056 C66.04,326.532 66.248,327.024 66.508,327.476 C67.624,332.24 69.236,336.52 71.444,340.144 C71.86,341.452 72.324,342.708 72.832,343.912 C72.848,343.944 72.86,343.976 72.872,344 C73.252,344.876 73.656,345.712 74.088,346.524 C74.236,346.804 74.352,347.108 74.504,347.388 C75.624,352.14 77.216,356.428 79.428,360.04 C80.232,362.568 81.208,364.912 82.396,367.04 C82.56,367.336 82.716,367.64 82.888,367.928 C83.028,368.176 83.164,368.428 83.316,368.668 C83.7,369.88 84.124,371.044 84.588,372.164 C84.624,372.244 84.652,372.316 84.676,372.392 C85.032,373.228 85.428,374.028 85.832,374.808 C86.012,375.16 86.176,375.532 86.368,375.872 C87.46,380.624 89.04,384.872 91.26,388.456 C92.028,390.924 92.984,393.208 94.128,395.284 C94.208,395.432 94.268,395.596 94.352,395.736 C94.988,398.492 95.788,401.088 96.776,403.484 C96.824,403.588 96.86,403.696 96.9,403.804 C97.244,404.612 97.628,405.388 98.008,406.144 C98.196,406.512 98.356,406.908 98.556,407.268 C99.68,412.02 101.292,416.312 103.496,419.948 C104.256,422.348 105.196,424.572 106.296,426.62 C106.376,426.76 106.436,426.916 106.512,427.056 C107.648,431.848 109.244,436.192 111.476,439.852 C112.288,442.392 113.28,444.752 114.476,446.892 C115.64,451.808 117.28,456.268 119.6,459.988 C120.404,462.496 121.396,464.824 122.568,466.952 C123.372,470.36 124.436,473.516 125.772,476.388 C163.936,498.988 208.436,512 256,512 C373.444,512 472.36,432.876 502.504,325.044 Z" id="Path" fill="#2E2E2E"></path>
            <path d="M100,208 C97.952,208 95.908,207.22 94.344,205.656 L82.344,193.656 C79.22,190.532 79.22,185.468 82.344,182.344 C85.468,179.22 90.532,179.22 93.656,182.344 L105.656,194.344 C108.78,197.468 108.78,202.532 105.656,205.656 C104.092,207.22 102.048,208 100,208 Z" id="Path" fill="#724C71"></path>
            <path d="M105.656,194.344 L93.656,182.344 C91.576,180.264 88.652,179.6 86,180.288 C87.336,180.632 88.608,181.296 89.656,182.344 L101.656,194.344 C104.78,197.468 104.78,202.532 101.656,205.656 C100.608,206.704 99.336,207.368 98,207.712 C98.656,207.88 99.324,208 100,208 C102.048,208 104.092,207.22 105.656,205.656 C108.78,202.532 108.78,197.468 105.656,194.344 Z" id="Path" fill="#684367"></path>
            <path d="M96,188 C96,192.4 92.4,196 88,196 L72,196 C67.6,196 64,192.4 64,188 L64,184 C64,179.6 67.6,176 72,176 L88,176 C92.4,176 96,179.6 96,184 L96,188 Z" id="Path" fill="#724C71"></path>
            <path d="M88,176 L84,176 C88.4,176 92,179.6 92,184 L92,188 C92,192.4 88.4,196 84,196 L88,196 C92.4,196 96,192.4 96,188 L96,184 C96,179.6 92.4,176 88,176 Z" id="Path" fill="#684367"></path>
            <path d="M408,208 C410.048,208 412.092,207.22 413.656,205.656 L425.656,193.656 C428.78,190.532 428.78,185.468 425.656,182.344 C422.532,179.22 417.468,179.22 414.344,182.344 L402.344,194.344 C399.22,197.468 399.22,202.532 402.344,205.656 C403.908,207.22 405.952,208 408,208 Z" id="Path" fill="#724C71"></path>
            <path d="M402.344,194.344 L414.344,182.344 C416.424,180.264 419.348,179.6 422,180.288 C420.664,180.632 419.392,181.296 418.344,182.344 L406.344,194.344 C403.22,197.468 403.22,202.532 406.344,205.656 C407.392,206.704 408.664,207.368 410,207.712 C409.344,207.88 408.676,208 408,208 C405.952,208 403.908,207.22 402.344,205.656 C399.22,202.532 399.22,197.468 402.344,194.344 Z" id="Path" fill="#684367"></path>
            <path d="M412,188 C412,192.4 415.6,196 420,196 L436,196 C440.4,196 444,192.4 444,188 L444,184 C444,179.6 440.4,176 436,176 L420,176 C415.6,176 412,179.6 412,184 L412,188 Z" id="Path" fill="#724C71"></path>
            <path d="M420,176 L424,176 C419.6,176 416,179.6 416,184 L416,188 C416,192.4 419.6,196 424,196 L420,196 C415.6,196 412,192.4 412,188 L412,184 C412,179.6 415.6,176 420,176 Z" id="Path" fill="#684367"></path>
            <path d="M377.108,124.512 C371.292,111.428 358.736,104 344.956,104 L256,104 L167.044,104 C153.268,104 140.708,111.424 134.892,124.512 L100,204 L256,204 L412,204 L377.108,124.512 Z" id="Path" fill="#C2E2F2"></path>
            <g id="Group" transform="translate(140.000000, 160.000000)" fill="#1A1A1A">
                <path d="M88,40 C88,48.8 80.8,56 72,56 L16,56 C7.2,56 0,48.8 0,40 L0,16 C0,7.2 7.2,0 16,0 L72,0 C80.8,0 88,7.2 88,16 L88,40 Z" id="Path"></path>
                <path d="M232,40 C232,48.8 224.8,56 216,56 L160,56 C151.2,56 144,48.8 144,40 L144,16 C144,7.2 151.2,0 160,0 L216,0 C224.8,0 232,7.2 232,16 L232,40 Z" id="Path"></path>
            </g>
            <path d="M328,236 C312.564,236 300,223.44 300,208 C300,192.56 312.564,180 328,180 C343.436,180 356,192.56 356,208 C356,223.44 343.436,236 328,236 Z M328,188 C316.972,188 308,196.972 308,208 C308,219.028 316.972,228 328,228 C339.028,228 348,219.028 348,208 C348,196.972 339.028,188 328,188 Z" id="Shape" fill="#263740"></path>
            <path d="M412,208 L100,208 C98.648,208 97.392,207.32 96.652,206.188 C95.912,205.056 95.792,203.628 96.336,202.392 L131.228,122.904 C137.512,108.768 151.236,100 167.044,100 L344.96,100 C360.764,100 374.492,108.768 380.772,122.888 L415.668,202.392 C416.212,203.628 416.084,205.056 415.352,206.188 C414.616,207.32 413.352,208 412,208 Z M106.124,200 L405.876,200 L373.456,126.12 C368.488,114.952 357.564,108 344.96,108 L167.048,108 C154.44,108 143.516,114.948 138.548,126.136 L106.124,200 Z" id="Shape" fill="#724C71"></path>
            <path d="M436.564,210.532 L412,200 L256,200 L100,200 L75.436,210.532 C65.9,214.384 60,223.76 60,234.46 L60,285.092 C60,312.196 62.132,336 88,336 L256,336 L424,336 C449.868,336 452,312.196 452,285.092 L452,234.46 C452,223.756 446.092,214.384 436.564,210.532 Z" id="Path" fill="#724C71"></path>
            <path d="M436.564,210.532 L412,200 L400,200 L424.564,210.532 C434.104,214.384 440,223.76 440,234.46 L440,285.092 C440,312.196 437.868,336 412,336 L424,336 C449.868,336 452,312.196 452,285.092 L452,234.46 C452,223.756 446.092,214.384 436.564,210.532 Z" id="Path" fill="#724C71"></path>
            <path d="M432,284 C432,297.2 421.2,308 408,308 L104,308 C90.8,308 80,297.2 80,284 L80,264 C80,250.8 90.8,240 104,240 L408,240 C421.2,240 432,250.8 432,264 L432,284 Z" id="Path" fill="#7C567B"></path>
            <g id="Group" transform="translate(185.000000, 252.000000)" fill="#724C71">
                <path d="M140,36 L4,36 C1.788,36 0,37.792 0,40 C0,42.208 1.788,44 4,44 L140,44 C142.212,44 144,42.208 144,40 C144,37.792 142.212,36 140,36 Z" id="Path"></path>
                <path d="M140,24 L4,24 C1.788,24 0,25.792 0,28 C0,30.208 1.788,32 4,32 L140,32 C142.212,32 144,30.208 144,28 C144,25.792 142.212,24 140,24 Z" id="Path"></path>
                <path d="M140,12 L4,12 C1.788,12 0,13.792 0,16 C0,18.208 1.788,20 4,20 L140,20 C142.212,20 144,18.208 144,16 C144,13.792 142.212,12 140,12 Z" id="Path"></path>
                <path d="M4,8 L140,8 C142.212,8 144,6.208 144,4 C144,1.792 142.212,0 140,0 L4,0 C1.788,0 0,1.792 0,4 C0,6.208 1.788,8 4,8 Z" id="Path"></path>
            </g>
            <g id="Group" transform="translate(151.999000, 123.999000)" fill="#E6F7FF">
                <path d="M4.001,28.001 C2.977,28.001 1.953,27.609 1.173,26.829 C-0.391,25.265 -0.391,22.737 1.173,21.173 L21.173,1.173 C22.737,-0.391 25.265,-0.391 26.829,1.173 C28.393,2.737 28.393,5.265 26.829,6.829 L6.829,26.829 C6.049,27.609 5.025,28.001 4.001,28.001 Z" id="Path"></path>
                <path d="M4.001,60.001 C2.977,60.001 1.953,59.609 1.173,58.829 C-0.391,57.265 -0.391,54.737 1.173,53.173 L53.173,1.173 C54.737,-0.391 57.265,-0.391 58.829,1.173 C60.393,2.737 60.393,5.265 58.829,6.829 L6.829,58.829 C6.049,59.609 5.025,60.001 4.001,60.001 Z" id="Path"></path>
            </g>
            <g id="Group" transform="translate(108.000000, 336.000000)" fill="#242424">
                <path d="M0,0 L0,24 C0,42.48 14.28,40 32,40 C49.72,40 64,42.48 64,24 L64,0 L0,0 Z" id="Path"></path>
                <path d="M232,0 L232,24 C232,42.48 246.28,40 264,40 C281.72,40 296,42.48 296,24 L296,0 L232,0 Z" id="Path"></path>
            </g>
            <g id="Group" transform="translate(125.044000, 336.000000)" fill="#1A1A1A">
                <path d="M234.956,40 C233.956,40 232.972,40.008 232,40.02 C234.768,40.148 237.776,40.108 240.956,40.064 C239.012,40.032 237.012,40 234.956,40 Z" id="Path"></path>
                <path d="M266.956,0 L266.956,24 C266.956,36.836 260.056,39.556 249.912,40.02 C266.236,40.22 278.956,41.436 278.956,24 L278.956,0 L266.956,0 Z" id="Path"></path>
                <path d="M2.956,40 C1.956,40 0.972,40.008 1.42108547e-14,40.02 C2.768,40.148 5.776,40.108 8.956,40.064 C7.012,40.032 5.012,40 2.956,40 Z" id="Path"></path>
                <path d="M34.956,0 L34.956,24 C34.956,36.836 28.056,39.556 17.912,40.02 C34.236,40.22 46.956,41.436 46.956,24 L46.956,0 L34.956,0 Z" id="Path"></path>
            </g>
            <path d="M136,272 C136,280.844 128.844,288 119.996,288 C111.156,288 104,280.844 104,272 C104,263.156 111.156,256 119.996,256 C128.844,256 136,263.156 136,272 Z" id="Path" fill="#F5F5F5"></path>
            <path d="M119.996,292 C108.968,292 100,283.028 100,272 C100,260.972 108.968,252 119.996,252 C131.028,252 140,260.972 140,272 C140,283.028 131.028,292 119.996,292 Z M119.996,260 C113.384,260 108,265.384 108,272 C108,278.616 113.384,284 119.996,284 C126.608,284 132,278.616 132,272 C132,265.384 126.608,260 119.996,260 Z" id="Shape" fill="#263740"></path>
            <path d="M408,272 C408,280.844 400.844,288 391.996,288 C383.156,288 376,280.844 376,272 C376,263.156 383.156,256 391.996,256 C400.844,256 408,263.156 408,272 Z" id="Path" fill="#F5F5F5"></path>
            <g id="Group" transform="translate(235.818338, 108.000000)" fill="#263740">
                <path d="M157.177662,184 C146.149662,184 137.181662,175.028 137.181662,164 C137.181662,152.972 146.149662,144 157.177662,144 C168.209662,144 177.181662,152.972 177.181662,164 C177.181662,175.028 168.209662,184 157.177662,184 Z M157.177662,152 C150.565662,152 145.181662,157.384 145.181662,164 C145.181662,170.616 150.565662,176 157.177662,176 C163.789662,176 169.181662,170.616 169.181662,164 C169.181662,157.384 163.789662,152 157.177662,152 Z" id="Shape"></path>
                <rect id="Rectangle" x="17.1816624" y="0" width="8" height="12"></rect>
                <path d="M41.6016624,16.844 C43.5736624,20.78 41.5816624,24 37.1816624,24 L5.18166238,24 C0.78166238,24 -1.21033762,20.78 0.76166238,16.844 L1.60566238,15.156 C3.57366238,11.22 8.78166238,8 13.1816624,8 L29.1816624,8 C33.5816624,8 38.7896624,11.22 40.7616624,15.156 L41.6016624,16.844 Z" id="Path"></path>
            </g>
        </g>
    </g>
</svg>