<svg version="1.1" xmlns="http://www.w3.org/2000/svg" xmlns:xlink="http://www.w3.org/1999/xlink" viewBox="0 0 172 172"><g fill="none" fill-rule="nonzero" stroke="none" stroke-width="1" stroke-linecap="butt" stroke-linejoin="miter" stroke-miterlimit="10" stroke-dasharray="" stroke-dashoffset="0" font-family="none" font-weight="none" font-size="none" text-anchor="none" style="mix-blend-mode: normal"><path d="M0,172v-172h172v172z" fill="#000000"></path><g fill="#ffffff"><path d="M114.38672,15.37701c-7.44128,0.2593 -14.21855,5.30834 -16.29297,12.84174c-2.55313,9.27188 3.08958,18.9474 12.36145,21.36615c9.27188,2.55312 18.94687,-2.95573 21.5,-12.2276c2.55313,-9.27188 -3.08958,-18.9474 -12.36145,-21.36615c-1.73848,-0.47871 -3.48981,-0.67398 -5.20703,-0.61414zM114.59668,23.46576c0.93262,-0.03533 1.89017,0.06561 2.8476,0.31757c4.97187,1.34375 7.92865,6.4521 6.5849,11.55835c-1.34375,4.97187 -6.4521,7.92603 -11.55835,6.58228c-4.8375,-1.34375 -7.92603,-6.58385 -6.58228,-11.55573c1.0918,-4.03965 4.66678,-6.74936 8.70813,-6.90246zM98.87061,56.00446c-14.18526,-0.4832 -29.78611,5.51515 -44.8529,17.63409c-13.03437,10.48125 -24.0526,24.32135 -29.69635,37.08698c-1.075,2.28437 0.26875,4.83697 2.6875,5.50885l122.4151,32.92188c2.41875,0.67188 4.83855,-0.9401 5.1073,-3.49323c1.47813,-13.975 -1.07605,-31.44375 -7.12292,-47.03125c-8.6,-22.17187 -22.44063,-36.82032 -38.96875,-41.2547c-3.09902,-0.80625 -6.29545,-1.26111 -9.56897,-1.37262zM98.16461,64.04858c2.79068,0.06968 5.50518,0.44302 8.12549,1.12329c13.975,3.7625 25.80053,16.66197 33.4599,36.4151c4.97188,12.76563 7.38958,26.7422 6.98645,38.5672l-113.00885,-30.37085c5.64375,-10.48125 14.6474,-21.36458 25.3974,-29.8302c13.4291,-10.80879 26.94668,-16.20649 39.03961,-15.90454zM94.86822,72.15833c-7.25625,0.5375 -15.45312,3.63022 -23.51562,8.87085c-1.88125,1.20937 -2.41927,3.76198 -1.2099,5.50885c0.40312,0.94062 1.34532,1.61093 2.28595,1.7453c1.075,0.26875 2.2849,0.13647 3.22552,-0.5354c6.9875,-4.56875 13.83958,-7.12397 19.75208,-7.5271c2.28437,-0.13438 3.89792,-2.14895 3.76355,-4.29895c-0.13437,-2.28437 -2.15157,-3.89792 -4.30157,-3.76355zM58.38489,92.80273c-1.04141,0.0168 -2.08071,0.45352 -2.88696,1.25977c-1.6125,1.6125 -3.09115,3.36042 -4.56927,5.1073c-1.47813,1.74688 -1.21095,4.29895 0.40155,5.6427c0.40312,0.40313 0.9422,0.67135 1.61407,0.80572c1.47812,0.40313 3.0901,0 4.1651,-1.34375c1.34375,-1.6125 2.68697,-3.09115 4.1651,-4.56927c1.6125,-1.6125 1.47813,-4.16458 0,-5.6427c-0.80625,-0.87344 -1.84818,-1.27656 -2.88959,-1.25977zM5.375,162.59375c-2.28438,0 -4.03125,1.74687 -4.03125,4.03125c0,2.28438 1.74687,4.03125 4.03125,4.03125h161.25c2.28438,0 4.03125,-1.74687 4.03125,-4.03125c0,-2.28438 -1.74687,-4.03125 -4.03125,-4.03125z"></path></g></g></svg>