<?xml version="1.0" encoding="UTF-8"?>
<svg width="31px" height="27px" viewBox="0 0 31 27" version="1.1" xmlns="http://www.w3.org/2000/svg" xmlns:xlink="http://www.w3.org/1999/xlink">
    <title>Untitled 2</title>
    <g id="Page-1" stroke="none" stroke-width="1" fill="none" fill-rule="evenodd">
        <g id="map-svgrepo-com" transform="translate(0.827000, 0.000000)" fill="#FFFFFF" fill-rule="nonzero">
            <path d="M24.1640566,12.0697505 C24.1640566,10.8360011 22.8799155,9.83221982 21.3013935,9.83221982 C19.7228715,9.83221982 18.4387305,10.8359373 18.4387305,12.0697505 C18.4387305,13.3035636 19.7228715,14.3072811 21.3013935,14.3072811 C22.8799155,14.3072811 24.1640566,13.3035636 24.1640566,12.0697505 Z M19.6633586,12.0697505 C19.6633586,11.3637663 20.3981681,10.7893566 21.3014752,10.7893566 C22.2047823,10.7893566 22.9395918,11.3637025 22.9395918,12.0697505 C22.9395918,12.7757984 22.2047823,13.3501443 21.3014752,13.3501443 C20.3981681,13.3501443 19.6633586,12.7757984 19.6633586,12.0697505 Z" id="Shape"></path>
            <path d="M29.3877268,0 L3.6413113,0 C3.45305769,0 3.26815118,0.0112304053 3.08748976,0.0328616973 C1.34153144,0.241964187 0,1.42390053 0,2.84607822 L0,24.1539218 C0,25.7232433 1.63346332,27 3.6413113,27 L9.56158516,27 C10.3848886,27 11.1449237,26.7850909 11.7555642,26.4236122 C11.782096,26.4100209 11.8071584,26.3941962 11.8313228,26.3770316 C12.3361625,26.0614954 12.7315277,25.6435457 12.9653345,25.1635735 L29.3877268,25.1635735 C29.7258649,25.1635735 30,24.9493025 30,24.6850051 L30,0.478568407 C30,0.214271028 29.7258649,0 29.3877268,0 Z M4.06402473,4.73508344 C4.1457428,4.34903825 4.37783517,3.99349383 4.73899473,3.71152133 C5.19477091,3.35476453 5.80132959,3.15836006 6.44707374,3.15836006 L11.9447158,3.15836006 C11.7536866,4.05181537 10.7580487,4.73508344 9.56158516,4.73508344 L4.06402473,4.73508344 Z M3.6413113,0.957136814 L9.56158516,0.957136814 C9.6864889,0.957136814 9.80927009,0.964602481 9.92911237,0.978959533 C10.8099694,1.08443601 11.5356357,1.56306823 11.8331188,2.20122324 L6.44707374,2.20122324 C5.4739675,2.20122324 4.55963949,2.49742518 3.87307712,3.03476179 C3.31288794,3.4720457 2.95768784,4.02724886 2.84502957,4.62928791 C1.90261862,4.37143526 1.22454644,3.66972635 1.22454644,2.84614203 C1.22454644,1.80452194 2.30875986,0.957136814 3.6413113,0.957136814 Z M1.22454644,4.97245337 C1.86800478,5.4197553 2.71449292,5.69215644 3.6413113,5.69215644 L4.84299954,5.69215644 L10.2123908,9.88894613 L1.22454644,16.9140751 L1.22454644,4.97245337 Z M11.9782684,24.1539218 C11.9782684,24.608498 11.7717282,25.0260648 11.4281205,25.3523209 L5.93292751,21.0571375 C5.69381441,20.8702406 5.306123,20.8702406 5.06709154,21.0571375 C4.82797844,21.2440344 4.82797844,21.547064 5.06709154,21.7338971 L10.4212168,25.9188183 C10.1539391,25.9986435 9.86421141,26.0427994 9.56150353,26.0427994 L3.64122966,26.0427994 C2.30867822,26.0427994 1.22446481,25.1954143 1.22446481,24.153858 L1.22446481,18.7305294 L2.78127151,19.9473693 C2.90078725,20.0407858 3.05752919,20.0875579 3.2141895,20.0875579 C3.37084981,20.0875579 3.52759175,20.0408497 3.64710749,19.9473693 C3.88622059,19.7604724 3.88622059,19.4574429 3.64710749,19.2706098 L1.79420545,17.8223341 L4.56127222,15.6595878 L11.9782684,21.4569017 L11.9782684,24.1539218 Z M11.9782684,17.1031415 C11.9781867,17.1070339 11.9781867,17.1108624 11.9782684,17.1147548 L11.9782684,20.1033188 L5.42710819,14.9827644 L11.0781451,10.5657695 L11.9781867,11.269265 L11.9781867,17.1031415 L11.9782684,17.1031415 Z M11.9782684,9.91574596 L6.57467148,5.69222025 L9.56150353,5.69222025 C10.4882403,5.69222025 11.33481,5.4197553 11.9782684,4.97245337 L11.9782684,9.91574596 L11.9782684,9.91574596 Z M12.2820375,0.957136814 L19.2167257,0.957136814 L13.2028148,5.65808237 L13.2028148,2.84607822 C13.2028148,2.12171708 12.8543089,1.4600803 12.2820375,0.957136814 Z M17.5790173,14.1842571 C16.2400982,12.7441491 16.4370869,10.7852729 18.0476104,9.52644652 C18.9447131,8.82524809 20.1230533,8.47468078 21.3014752,8.47468078 C22.479897,8.47468078 23.6582373,8.8253119 24.55534,9.52644652 C26.1658635,10.7852729 26.3629338,12.7441491 25.0239331,14.1842571 L21.3014752,18.187769 L17.5790173,14.1842571 Z M19.364406,17.7324909 L13.2028965,22.5479738 L13.2028965,17.3067564 L16.5429693,14.6955596 C16.558317,14.7125966 16.5728483,14.7300165 16.5885225,14.7469259 L19.364406,17.7324909 Z M17.1816928,8.84968698 C16.2014842,9.6158431 15.6018646,10.6326414 15.4932065,11.7128022 C15.4203052,12.4378015 15.5725571,13.1613331 15.9262877,13.8239908 L13.2028148,15.9531097 L13.2028148,7.01134621 L14.181554,6.24672151 L17.3509251,8.72398301 C17.2939428,8.7651399 17.2370423,8.8064244 17.1816928,8.84968698 Z M13.2028148,24.2064367 L13.2028148,23.9015567 L20.093256,18.5163859 L20.806187,19.2831163 C20.921376,19.4070337 21.1055477,19.4803503 21.3014752,19.4803503 C21.4974026,19.4803503 21.6815744,19.4070337 21.7967634,19.2831163 L22.3613609,18.6759087 L26.6255582,22.0092972 L23.8139179,24.2064367 L13.2028148,24.2064367 Z M28.7754536,24.2064367 L25.5459164,24.2064367 L27.4913942,22.6861206 L28.7754536,23.6899019 L28.7754536,24.2064367 Z M28.7754536,22.3361914 L23.090211,17.8920137 L25.6113888,15.1805089 L28.7754536,17.6536228 L28.7754536,22.3361914 L28.7754536,22.3361914 Z M28.7754536,16.3000399 L26.3204829,14.3811721 C26.9247557,13.579219 27.2037074,12.6470954 27.1097439,11.7128022 C27.0010858,10.6326414 26.4013846,9.6158431 25.4211759,8.84968698 C25.2514538,8.71702782 25.0729149,8.59547144 24.8884166,8.48265692 L28.7754536,5.44444943 L28.7754536,16.3000399 L28.7754536,16.3000399 Z M28.7754536,4.09080274 L23.8200407,7.964144 C22.0834705,7.3148862 20.0180689,7.37493058 18.3432975,8.146 L15.0476349,5.57002578 L20.9484792,0.957136814 L28.7754536,0.957136814 L28.7754536,4.09080274 L28.7754536,4.09080274 Z" id="Shape"></path>
            <path d="M4.21692976,20.0173041 C4.10027131,20.0367659 3.98793958,20.080858 3.90426224,20.1481128 C3.66547568,20.3295221 3.67061878,20.6426335 3.90426224,20.8244895 C4.1379057,21.0064093 4.53686293,21.0116416 4.76960839,20.8244895 C5.00602749,20.6448668 5.00643567,20.3277993 4.76960839,20.1481128 C4.62984682,20.0355535 4.41253065,19.9857824 4.21692976,20.0173041 C4.17856064,20.023685 4.2961171,20.0045423 4.21692976,20.0173041 Z" id="Path"></path>
        </g>
    </g>
</svg>